<svg xmlns="http://www.w3.org/2000/svg" width="20" height="23.636" fill="#fff"><g data-name="user, account, people, man" fill="#fff"><path data-name="Path 1464" d="M17.034 11.983a.909.909 0 1 0-1.278 1.293 8.125 8.125 0 0 1 2.426 5.815c0 1.112-3.187 2.727-8.182 2.727s-8.182-1.616-8.182-2.729a8.126 8.126 0 0 1 2.4-5.784.91.91 0 1 0-1.286-1.286A9.933 9.933 0 0 0 0 19.091c0 2.952 5.152 4.545 10 4.545s10-1.593 10-4.545a9.927 9.927 0 0 0-2.966-7.108Z"></path><path data-name="Path 1465" d="M10 12.727a6.364 6.364 0 1 0-6.364-6.363A6.364 6.364 0 0 0 10 12.727Zm0-10.909a4.545 4.545 0 1 1-4.545 4.545A4.545 4.545 0 0 1 10 1.818Z"></path></g></svg>