<svg xmlns="http://www.w3.org/2000/svg" width="23.509" height="23.512" fill="#fff"><path data-name="home (2)" d="M22.878 10.227 13.285.634a2.164 2.164 0 0 0-3.061 0L.638 10.22l-.01.01a2.164 2.164 0 0 0 1.44 3.688h.449v7.058a2.536 2.536 0 0 0 2.533 2.533H8.8a.689.689 0 0 0 .689-.689v-5.53a1.157 1.157 0 0 1 1.156-1.156h2.213a1.157 1.157 0 0 1 1.156 1.156v5.534a.689.689 0 0 0 .689.689h3.752a2.536 2.536 0 0 0 2.533-2.533v-7.059h.354a2.165 2.165 0 0 0 1.532-3.694Zm-.978 2.086a.782.782 0 0 1-.556.231H20.3a.689.689 0 0 0-.689.689v7.747a1.157 1.157 0 0 1-1.156 1.156h-3.06V17.29a2.536 2.536 0 0 0-2.533-2.533h-2.214a2.536 2.536 0 0 0-2.534 2.533v4.845H5.051A1.157 1.157 0 0 1 3.9 20.979v-7.747a.689.689 0 0 0-.689-.689H2.149a.786.786 0 0 1-.542-1.342L11.2 1.608a.786.786 0 0 1 1.113 0l9.587 9.593a.789.789 0 0 1 0 1.112Zm0 0" fill="#fff"></path></svg>