<svg xmlns="http://www.w3.org/2000/svg" width="20.075" height="25.012" fill="#fff"><path data-name="Path 1459" d="M10.052 25.012a3.616 3.616 0 0 1-2.994-1.57 3.011 3.011 0 0 1-.087-3.633.607.607 0 0 1 .872-.058.637.637 0 0 1 .087.872c-.872 1.046.233 2.587 1.279 2.994a2.413 2.413 0 0 0 3.11-1.453 2.218 2.218 0 0 1 .785-1.192 2.508 2.508 0 0 1 1.453-.262h2.587a2.165 2.165 0 0 0 1.4-.32.816.816 0 0 0 .058-1.134.772.772 0 0 0-.174-.145c-.436-.291-1.279-.058-1.337-.814-.116-2.761-.349-7.5-.378-7.877-.349-3.779-2.151-5.959-4.97-6.569-.639-.145-.494-.872-.494-1.366a1.192 1.192 0 1 0-2.383 0c0 .465.145 1.25-.494 1.366-3.575.727-4.8 4.651-4.97 6.569a998.11 998.11 0 0 0-.378 7.906c-.029.727-.872.494-1.308.785a.772.772 0 0 0-.174 1.25c.436.349 2.994.291 3.6.32a.625.625 0 1 1-.029 1.25c-.61 0-3.226.174-4.36-.61a1.965 1.965 0 0 1-.087-3.023 2.4 2.4 0 0 1 1.1-.581c.116-2.529.2-4.069.378-7.47a9.148 9.148 0 0 1 1.979-5.148 6.6 6.6 0 0 1 3.488-2.354 2.853 2.853 0 0 1 .523-1.8 2.453 2.453 0 0 1 3.43-.436A1.557 1.557 0 0 1 12 .945a2.853 2.853 0 0 1 .523 1.8A6.62 6.62 0 0 1 16.04 5.07a9.456 9.456 0 0 1 1.947 5.2c.174 2.442.233 4.505.349 7.412a2.394 2.394 0 0 1 1.1.581 2.054 2.054 0 0 1 .087 2.878l-.145.145a4.466 4.466 0 0 1-2.994.61 14.377 14.377 0 0 0-2.558.058c-.058.029-.145.145-.291.552a3.74 3.74 0 0 1-3.483 2.506Z" fill="#fff"></path></svg>