<svg xmlns="http://www.w3.org/2000/svg" width="24px" height="24px" fill="#fff"><g fill="#fff"><path data-name="Path 1453" d="M19.8 24H5.4A5.406 5.406 0 0 1 0 18.6V1.8A1.8 1.8 0 0 1 1.8 0H15a1.8 1.8 0 0 1 1.8 1.8v9.6a.6.6 0 1 1-1.2 0V1.8a.6.6 0 0 0-.6-.6H1.8a.6.6 0 0 0-.6.6v16.8a4.2 4.2 0 0 0 4.2 4.2h14.4a.6.6 0 1 1 0 1.2Z"></path><path data-name="Path 1454" d="M19.8 24a4.2 4.2 0 0 1-4.2-4.2v-9.6a.6.6 0 0 1 .6-.6h6a1.8 1.8 0 0 1 1.8 1.8v8.4a4.2 4.2 0 0 1-4.2 4.2Zm-3-13.2v9a3 3 0 1 0 6 0v-8.4a.6.6 0 0 0-.6-.6Z"></path><path data-name="Path 1455" d="M12 10.8H4.8A1.8 1.8 0 0 1 3 9V5.4a1.8 1.8 0 0 1 1.8-1.8H12a1.8 1.8 0 0 1 1.8 1.8V9a1.8 1.8 0 0 1-1.8 1.8Zm-7.2-6a.6.6 0 0 0-.6.6V9a.6.6 0 0 0 .6.6H12a.6.6 0 0 0 .6-.6V5.4a.6.6 0 0 0-.6-.6Z"></path><path data-name="Path 1456" d="M13.2 13.8H3.6a.6.6 0 1 1 0-1.2h9.6a.6.6 0 0 1 0 1.2Z"></path><path data-name="Path 1457" d="M13.2 16.8H3.6a.6.6 0 0 1 0-1.2h9.6a.6.6 0 0 1 0 1.2Z"></path><path data-name="Path 1458" d="M7.8 19.8H3.6a.6.6 0 1 1 0-1.2h4.2a.6.6 0 1 1 0 1.2Z"></path></g></svg>